<svg xmlns="http://www.w3.org/2000/svg" xmlns:xlink="http://www.w3.org/1999/xlink" width="1080" zoomAndPan="magnify" viewBox="0 0 810 1012.49997" height="1350" preserveAspectRatio="xMidYMid meet" version="1.0"><path fill="#b29079" d="M 655.574219 804.398438 C 655.925781 805.304688 656.132812 806.246094 656.183594 807.21875 C 656.238281 808.191406 656.136719 809.148438 655.882812 810.085938 C 655.628906 811.027344 655.234375 811.902344 654.695312 812.71875 C 654.160156 813.53125 653.511719 814.238281 652.75 814.84375 C 650.539062 816.609375 648.035156 817.707031 645.238281 818.140625 C 648.554688 818.140625 651.964844 819.015625 652.121094 822.039062 C 652.046875 823.121094 651.726562 824.121094 651.15625 825.042969 C 650.582031 825.964844 649.828125 826.695312 648.894531 827.242188 C 639.925781 833.964844 628.179688 835.355469 617.015625 836.433594 C 595.429688 838.472656 573.574219 840.535156 552.144531 837.261719 C 548.550781 837 545.300781 835.804688 542.394531 833.675781 C 535.800781 828.003906 538.875 817.398438 542.394531 809.464844 L 563.554688 791.824219 C 539.726562 800.789062 512.265625 810.496094 511.03125 808.925781 L 473.261719 718.003906 C 496.417969 707.648438 576.9375 676.265625 601.347656 670.347656 C 622.644531 665.101562 635.332031 675.503906 638.917969 678.351562 C 650.527344 687.519531 656.851562 711.976562 651.515625 728.855469 C 643.648438 753.871094 621.566406 767.230469 602.78125 776.355469 C 608.628906 775.628906 614.347656 774.335938 619.9375 772.480469 C 625.527344 770.625 630.882812 768.238281 636.003906 765.328125 C 639.433594 763.355469 643.265625 761.066406 647.097656 762.074219 C 649.183594 762.730469 650.855469 763.949219 652.121094 765.730469 C 657.34375 772.453125 654.742188 783.664062 647.523438 788.011719 C 647.910156 788.007812 648.292969 788.039062 648.671875 788.105469 C 649.046875 788.175781 649.417969 788.28125 649.773438 788.421875 C 650.132812 788.5625 650.472656 788.738281 650.796875 788.945312 C 651.121094 789.15625 651.421875 789.394531 651.695312 789.660156 C 651.972656 789.929688 652.222656 790.21875 652.441406 790.535156 C 652.660156 790.851562 652.847656 791.1875 653 791.539062 C 653.152344 791.890625 653.273438 792.257812 653.355469 792.632812 C 653.4375 793.007812 653.480469 793.386719 653.488281 793.773438 C 653.292969 795.308594 652.769531 796.71875 651.914062 798.007812 C 651.058594 799.296875 649.960938 800.328125 648.625 801.101562 C 649.300781 800.976562 649.984375 800.960938 650.667969 801.050781 C 651.351562 801.140625 652.007812 801.332031 652.632812 801.628906 C 653.253906 801.921875 653.816406 802.308594 654.320312 802.78125 C 654.824219 803.253906 655.242188 803.792969 655.574219 804.398438 Z M 593.929688 672.140625 C 610.738281 667.949219 628.832031 659.050781 640.734375 647.011719 C 646.15625 641.519531 650.238281 633.359375 654.652344 622.824219 C 657.457031 616.097656 663.464844 597.648438 656.289062 597.515625 C 643.109375 603.835938 637.191406 632.867188 622.664062 633.382812 C 633.605469 621.589844 634.410156 610.515625 630.9375 600.027344 C 628.066406 591.351562 619.191406 583.707031 613.226562 589.109375 C 608.410156 596.617188 632.394531 608.589844 610.15625 623.742188 C 604.632812 626.644531 598.773438 628.5 592.582031 629.300781 C 584.222656 629.300781 583.28125 622.9375 586.351562 615.136719 C 589.421875 607.332031 597.335938 602.671875 605.113281 599.578125 C 609.484375 597.851562 614.484375 593.972656 611.546875 590.273438 C 611.105469 589.632812 610.558594 589.09375 609.90625 588.664062 C 609.253906 588.234375 608.546875 587.941406 607.78125 587.785156 C 594.890625 585.792969 581.578125 593.1875 574.738281 604.308594 C 567.902344 615.425781 569.941406 628.472656 567.296875 641.25 C 565.570312 649.542969 544.296875 648.109375 537.257812 647.640625 C 492.988281 644.613281 469.875 635.398438 421.703125 625.960938 C 401.28125 621.949219 393.996094 623.472656 389.265625 618.453125 C 384.539062 613.429688 382.921875 606.75 381.511719 593.792969 C 374.785156 531.027344 376.175781 515.894531 371.355469 479.199219 C 369.3125 476.308594 366.859375 473.820312 363.996094 471.730469 C 361.132812 469.644531 358.011719 468.070312 354.632812 467.003906 C 345.847656 464.25 335.246094 463.484375 331.34375 464.292969 C 311.167969 468.53125 310.226562 475.1875 302.203125 484.15625 C 302.203125 484.15625 317.558594 586.082031 341.519531 651.226562 C 342.03125 653.515625 343.054688 655.550781 344.59375 657.324219 C 346.257812 658.53125 348.113281 659.277344 350.152344 659.566406 C 404.644531 672.320312 440.554688 677.992188 496.441406 681.265625 C 512.839844 682.402344 529.226562 682.210938 545.59375 680.695312 C 561.964844 679.179688 578.105469 676.359375 594.019531 672.230469 Z M 593.929688 672.140625 " fill-opacity="1" fill-rule="nonzero"/><path fill="#5b7c7b" d="M 366.539062 843.582031 C 367.613281 851.988281 371.15625 876.132812 366.023438 882.878906 C 364.792969 884.1875 363.394531 885.273438 361.824219 886.140625 C 360.253906 887.011719 358.589844 887.621094 356.832031 887.96875 C 342.914062 892.160156 328.714844 894.917969 314.238281 896.238281 C 287.339844 898.480469 259.769531 901.507812 234.011719 893.460938 C 231.648438 892.679688 229.3125 891.820312 227.003906 890.878906 C 224.699219 889.933594 222.429688 888.914062 220.195312 887.8125 C 217.960938 886.710938 215.769531 885.535156 213.617188 884.28125 C 211.464844 883.023438 209.359375 881.695312 207.300781 880.296875 C 205.242188 878.894531 203.234375 877.421875 201.277344 875.878906 C 199.320312 874.339844 197.421875 872.730469 195.578125 871.054688 C 193.734375 869.382812 191.949219 867.644531 190.226562 865.84375 C 188.507812 864.046875 186.847656 862.1875 185.257812 860.273438 C 183.664062 858.359375 182.140625 856.390625 180.683594 854.367188 C 179.230469 852.347656 177.847656 850.277344 176.535156 848.160156 C 175.226562 846.039062 173.992188 843.878906 172.832031 841.675781 C 171.671875 839.46875 170.59375 837.226562 169.589844 834.945312 C 168.585938 832.667969 167.664062 830.355469 166.824219 828.011719 C 165.984375 825.664062 165.226562 823.292969 164.550781 820.898438 C 163.875 818.5 163.285156 816.082031 162.777344 813.640625 C 162.273438 811.203125 161.851562 808.75 161.519531 806.28125 C 157.929688 775.4375 172.164062 735.199219 187.074219 708.074219 L 367.679688 703.277344 C 382.902344 703.074219 384.066406 721.210938 378.890625 739.703125 C 376.132812 749.992188 359.835938 792.203125 366.539062 843.582031 Z M 366.539062 843.582031 " fill-opacity="1" fill-rule="nonzero"/><path fill="#eae4dc" d="M 263.085938 399.351562 C 299.378906 413.25 324.304688 393.816406 324.304688 393.816406 C 336.027344 428.832031 370.773438 453.710938 377.65625 489.984375 C 382.519531 515.648438 372.320312 541.40625 366.449219 566.828125 C 365.109375 572.617188 363.988281 578.449219 363.085938 584.320312 C 362.183594 590.191406 361.496094 596.089844 361.03125 602.015625 C 360.566406 607.9375 360.324219 613.871094 360.296875 619.8125 C 360.273438 625.753906 360.472656 631.691406 360.890625 637.617188 C 361.304688 643.542969 361.941406 649.449219 362.800781 655.328125 C 363.65625 661.207031 364.730469 667.046875 366.019531 672.847656 C 367.308594 678.648438 368.8125 684.394531 370.53125 690.082031 C 372.25 695.769531 374.175781 701.386719 376.3125 706.929688 C 356.882812 712.550781 337.320312 717.644531 317.625 722.21875 C 296.105469 727.195312 274.136719 731.589844 252.078125 730.378906 C 225.652344 728.921875 200.367188 719.527344 175.863281 709.710938 C 179.6875 704.296875 183.058594 698.617188 185.988281 692.671875 C 188.914062 686.726562 191.359375 680.589844 193.324219 674.261719 C 195.285156 667.933594 196.738281 661.488281 197.6875 654.929688 C 198.636719 648.371094 199.066406 641.777344 198.976562 635.152344 C 198.707031 619.597656 195.570312 604.242188 192.386719 589.019531 C 187.167969 563.988281 181.84375 538.964844 176.402344 513.945312 C 171.917969 515.449219 168.511719 509.753906 167.570312 505.113281 C 164.632812 490.5 166.496094 475.410156 168.355469 460.640625 C 171.382812 435.015625 177.613281 403.34375 199.289062 389.332031 C 199.289062 389.332031 212.605469 380.027344 263.085938 399.351562 Z M 263.085938 399.351562 " fill-opacity="1" fill-rule="nonzero"/><path fill="#895c4e" d="M 379.851562 166.53125 C 379.179688 171.957031 371.15625 187.804688 368.152344 192.378906 C 358.234375 206.78125 347.101562 220.171875 334.75 232.550781 C 333.597656 230.300781 332.066406 228.351562 330.15625 226.699219 C 325.917969 223.136719 319.171875 222.105469 314.84375 225.691406 C 313.636719 226.90625 312.648438 228.277344 311.878906 229.8125 C 311.113281 231.34375 310.609375 232.960938 310.363281 234.65625 C 309.503906 238.605469 309.152344 242.601562 309.308594 246.640625 C 309.464844 250.679688 310.121094 254.636719 311.28125 258.507812 C 307.195312 263.429688 302.632812 267.863281 297.597656 271.804688 C 292.558594 275.746094 287.160156 279.105469 281.402344 281.890625 C 268.195312 288.613281 236.792969 299.351562 234.011719 292.199219 C 228.09375 277.945312 220.5625 267.855469 211.84375 252.65625 C 210.320312 249.84375 208.996094 246.9375 207.875 243.9375 L 207.582031 244.140625 C 199.960938 248.9375 189.785156 250.59375 181.9375 246.179688 C 179.023438 244.5 176.628906 242.257812 174.765625 239.453125 C 173.191406 239.566406 171.625 239.515625 170.058594 239.308594 C 168.496094 239.097656 166.96875 238.734375 165.480469 238.210938 C 163.988281 237.691406 162.566406 237.027344 161.214844 236.21875 C 159.859375 235.40625 158.601562 234.46875 157.4375 233.402344 C 155.664062 231.445312 154.1875 229.285156 153.011719 226.921875 C 151.832031 224.558594 151 222.078125 150.511719 219.480469 C 146.722656 203.273438 150.308594 186.082031 155.871094 170.34375 C 157.367188 165.433594 159.691406 160.949219 162.839844 156.894531 C 165.804688 153.636719 169.277344 151.074219 173.265625 149.203125 C 176.390625 147.589844 179.648438 146.308594 183.035156 145.363281 C 186.425781 144.414062 189.875 143.820312 193.382812 143.582031 C 196.894531 143.339844 200.394531 143.457031 203.878906 143.933594 C 207.363281 144.40625 210.765625 145.230469 214.085938 146.402344 C 216.5625 147.347656 218.929688 148.511719 221.191406 149.898438 C 225.359375 146.066406 229.191406 143.375 231.660156 141.3125 C 245.601562 129.636719 255.578125 122.214844 273.171875 117.910156 C 302.492188 110.761719 343.828125 122.730469 364.316406 144.992188 C 372.410156 153.710938 380.90625 158.148438 379.851562 166.53125 Z M 379.851562 166.53125 " fill-opacity="1" fill-rule="nonzero"/><path fill="#bb9d88" d="M 247.597656 167.765625 L 247.796875 168.035156 Z M 247.417969 167.070312 L 247.214844 167.070312 L 247.796875 167.898438 C 248.382812 167.945312 247.101562 166.980469 247.460938 167.070312 Z M 247.550781 167.070312 C 247.820312 167.070312 247.550781 166.78125 247.371094 166.667969 C 247.597656 166.871094 247.191406 166.800781 247.597656 167.046875 Z M 248.023438 167.070312 C 248.492188 166.914062 247.886719 166.175781 248.449219 166.152344 L 248.628906 166.308594 C 248.875 166.195312 248.15625 165.949219 248.628906 165.90625 C 249.097656 165.859375 248.875 166.085938 248.917969 166.0625 C 249.097656 165.570312 249.570312 165.253906 249.367188 164.539062 C 249.859375 164.71875 249.679688 164.089844 250.195312 164.222656 C 250.195312 164 250.195312 163.910156 249.949219 163.6875 C 251.160156 162.363281 251.789062 160.613281 252.910156 159.203125 C 252.617188 157.925781 254.1875 157.859375 254.546875 156.960938 C 254.550781 156.507812 254.746094 156.15625 255.128906 155.90625 L 255.015625 155.390625 C 257.257812 154.179688 258.445312 152.097656 260.507812 150.910156 C 262.570312 149.71875 264.992188 148.847656 266.671875 146.425781 C 266.671875 146.425781 266.671875 146.425781 266.671875 146.605469 C 267.253906 146.066406 268.039062 146.113281 268.578125 145.617188 C 269.878906 144.136719 272.007812 144.316406 273.351562 142.929688 C 275.371094 142.367188 277.65625 141.695312 279.808594 141.023438 L 279.808594 141.222656 C 281.511719 140.484375 283.371094 141.222656 285.078125 140.753906 C 286.914062 141 288.753906 139.296875 290.660156 139.835938 C 291.824219 140.753906 293.28125 138.648438 294.378906 139.65625 C 296.621094 141.179688 298.707031 140.28125 301.105469 139.5 C 303.097656 140.125 305.25 138.894531 307.132812 140.148438 C 308.144531 139.519531 309.039062 141.203125 310.09375 141.066406 L 310.09375 140.820312 C 310.40625 141.605469 311.035156 139.878906 311.167969 141 C 311.304688 141.5625 311.730469 139.722656 311.796875 140.394531 L 311.796875 140.125 C 312.042969 140.125 311.796875 140.441406 311.953125 140.550781 C 312.109375 140.664062 311.953125 140.058594 312.15625 140.238281 C 312.15625 141.359375 312.78125 140.035156 312.671875 141.3125 C 312.535156 141.3125 312.828125 141.808594 312.515625 142.054688 C 312.515625 142.1875 313.007812 142.164062 313.007812 141.628906 C 313.152344 141.121094 313.152344 140.613281 313.007812 140.105469 L 313.007812 140.53125 C 312.988281 140.351562 312.988281 140.171875 313.007812 139.992188 C 312.695312 139.992188 312.695312 139.296875 312.492188 139.027344 C 312.289062 139.519531 312.109375 139.207031 311.976562 139.027344 L 311.976562 138.804688 C 311.976562 138.308594 311.527344 139.699219 311.707031 138.804688 C 310.960938 138.902344 310.210938 138.902344 309.464844 138.804688 C 309.332031 139.09375 308.90625 138.804688 309.015625 139.339844 C 309 139.109375 308.910156 138.90625 308.75 138.734375 C 308.59375 138.5625 308.398438 138.457031 308.164062 138.421875 C 308.164062 138.421875 308.164062 138.289062 308.164062 138.308594 C 307.851562 137.390625 307.648438 139.117188 307.359375 137.972656 C 307.359375 138.757812 306.707031 137.683594 306.4375 138.578125 C 306.40625 138.421875 306.40625 138.265625 306.4375 138.109375 C 305.765625 138.109375 305.070312 137.707031 304.511719 137.617188 C 303.972656 138.265625 303.367188 137.234375 302.898438 138.152344 C 302.5625 137.929688 302.046875 137.503906 301.550781 137.863281 L 301.550781 137.75 C 300.914062 137.679688 300.375 137.878906 299.9375 138.355469 C 299.828125 137.457031 299.578125 137.617188 299.355469 137.324219 C 298.976562 137.726562 298.257812 137.570312 297.695312 137.929688 C 297.695312 137.527344 297.226562 138.109375 297.226562 137.503906 C 296.835938 137.734375 296.421875 137.902344 295.984375 138.015625 C 295.546875 138.128906 295.101562 138.175781 294.648438 138.164062 C 294.195312 138.148438 293.753906 138.074219 293.324219 137.933594 C 292.894531 137.792969 292.492188 137.597656 292.117188 137.347656 C 291.890625 137.707031 291.691406 138.398438 291.488281 138.824219 C 291.488281 138.824219 291.488281 138.667969 291.488281 138.667969 C 291.195312 138.78125 290.882812 138.199219 290.589844 138.332031 C 290.566406 138.265625 290.566406 138.199219 290.589844 138.132812 C 290.320312 138.398438 289.984375 137.660156 289.671875 138.132812 L 289.671875 138.265625 L 289.46875 138.488281 C 289.46875 138.289062 289.46875 137.996094 289.46875 138.042969 C 286.847656 138.042969 284.269531 139.25 281.625 139.519531 L 281.625 139.320312 L 281.175781 139.722656 C 281.152344 139.65625 281.152344 139.589844 281.175781 139.519531 C 280.457031 139.296875 279.898438 139.96875 279.25 140.015625 C 279.25 140.015625 279.25 139.699219 279.25 139.609375 C 278.890625 140.238281 278.351562 139.074219 278.351562 140.238281 C 278.324219 140.105469 278.324219 139.96875 278.351562 139.835938 C 277.132812 140.441406 275.847656 140.816406 274.496094 140.957031 C 273.710938 142.253906 272.253906 141.738281 271.449219 142.90625 L 271.449219 142.703125 C 270.304688 143.890625 268.578125 143.757812 267.253906 144.566406 C 266.652344 144.742188 266.359375 145.167969 265.820312 145.484375 L 265.6875 145.257812 C 265.214844 146.582031 263.265625 145.597656 262.863281 147.121094 L 262.75 146.785156 C 262.882812 147.34375 262.054688 147.007812 262.617188 147.726562 L 262.300781 147.726562 C 262.300781 149.136719 260.84375 148.039062 260.574219 149.25 L 260.574219 149.027344 C 260.574219 149.316406 260.328125 149.585938 260.082031 149.542969 C 259.835938 149.496094 260.082031 149.542969 260.082031 149.382812 C 258.917969 149.183594 258.851562 150.484375 258.246094 151 L 258.042969 150.640625 C 258.042969 151.265625 257.214844 151.425781 257.011719 151.941406 L 257.011719 151.78125 L 257.011719 152.164062 L 256.71875 151.714844 C 256.308594 152.242188 255.933594 152.796875 255.597656 153.375 L 255.375 153.105469 C 255.375 153.980469 254.476562 154.070312 254.253906 154.742188 L 254.253906 154.628906 C 253.214844 155.890625 252.40625 157.289062 251.832031 158.820312 L 251.832031 158.664062 C 251.832031 158.800781 252.011719 159 251.832031 159.046875 C 251.75 159.023438 251.707031 158.972656 251.699219 158.890625 C 251.027344 158.890625 251.40625 159.921875 250.914062 159.832031 C 250.957031 160.011719 251.066406 160.125 251.25 160.167969 C 250.5625 161.3125 250.019531 162.523438 249.613281 163.796875 C 249.46875 163.761719 249.34375 163.695312 249.234375 163.597656 C 249.390625 165.03125 248.449219 165.839844 247.707031 166.644531 C 247.820312 166.847656 247.933594 166.710938 248.066406 166.957031 Z M 292.292969 137.570312 Z M 312.46875 138.9375 C 312.46875 138.9375 312.445312 138.9375 312.425781 138.9375 Z M 258.378906 178.617188 L 258.378906 178.300781 Z M 258.378906 177.585938 L 258.378906 178.546875 C 258.691406 178.972656 258.15625 177.472656 258.378906 177.785156 Z M 258.582031 177.832031 C 258.761719 177.988281 258.582031 177.585938 258.582031 177.425781 C 258.804688 177.832031 258.402344 177.472656 258.601562 177.898438 Z M 296.082031 164.382812 Z M 311.058594 166.621094 C 311.148438 166.113281 311.148438 165.605469 311.058594 165.097656 L 311.058594 165.523438 C 311.042969 165.351562 311.042969 165.179688 311.058594 165.007812 C 310.832031 165.007812 310.808594 164.335938 310.632812 164.089844 C 310.632812 164.605469 310.363281 164.292969 310.273438 164.222656 L 310.273438 164 C 310.273438 163.507812 310.003906 164.941406 310.070312 164.113281 C 309.578125 164.292969 309.070312 164.367188 308.546875 164.335938 C 308.546875 164.648438 308.164062 164.335938 308.277344 164.917969 C 308.144531 164.222656 307.738281 164.042969 307.605469 164.089844 C 307.46875 164.132812 307.605469 163.953125 307.605469 164.089844 C 307.3125 163.191406 307.292969 164.941406 307 163.84375 C 307 164.628906 306.527344 163.597656 306.394531 164.539062 C 306.386719 164.382812 306.386719 164.222656 306.394531 164.066406 C 305.921875 164.066406 305.410156 163.796875 305.003906 163.777344 C 304.691406 164.46875 304.152344 163.484375 303.90625 164.449219 C 303.660156 164.269531 303.234375 163.910156 302.921875 164.3125 L 302.921875 164.179688 C 302.679688 164.1875 302.464844 164.261719 302.269531 164.402344 C 302.074219 164.539062 301.933594 164.71875 301.84375 164.941406 C 301.664062 164.042969 301.53125 164.246094 301.328125 163.976562 C 301.105469 164.402344 300.589844 164.3125 300.230469 164.738281 C 300.230469 164.3125 299.917969 164.941406 299.847656 164.335938 C 298.863281 165.589844 297.605469 165.277344 296.238281 164.539062 C 296.238281 164.917969 296.039062 165.613281 295.925781 166.039062 C 295.902344 165.988281 295.902344 165.933594 295.925781 165.882812 C 295.722656 166.039062 295.476562 165.457031 295.277344 165.589844 C 295.253906 165.523438 295.253906 165.457031 295.277344 165.390625 C 295.121094 165.679688 294.828125 164.964844 294.648438 165.390625 L 294.648438 165.234375 L 294.648438 165.457031 C 294.648438 165.277344 294.648438 164.964844 294.648438 165.03125 C 292.808594 165.03125 291.085938 166.332031 289.222656 166.511719 L 289.222656 166.308594 L 288.910156 166.710938 L 288.910156 166.511719 C 288.417969 166.242188 288.035156 166.871094 287.566406 166.871094 C 287.605469 166.734375 287.605469 166.601562 287.566406 166.464844 C 287.339844 167.070312 286.914062 165.882812 286.960938 167.027344 C 286.9375 166.890625 286.9375 166.757812 286.960938 166.621094 C 286.117188 167.125 285.207031 167.359375 284.226562 167.316406 C 283.6875 168.484375 282.632812 167.765625 281.984375 168.730469 L 281.984375 168.527344 C 281.132812 169.445312 279.898438 168.976562 278.867188 169.378906 C 278.417969 169.378906 278.171875 169.714844 277.746094 169.828125 L 277.746094 169.582031 C 277.253906 170.726562 275.976562 169.15625 275.503906 170.386719 L 275.503906 170.050781 C 275.503906 170.589844 274.988281 170.050781 275.28125 170.859375 L 275.078125 170.636719 C 274.878906 171.933594 273.980469 170.367188 273.578125 171.308594 L 273.578125 171.082031 C 273.441406 171.308594 273.285156 171.488281 273.105469 171.328125 C 272.925781 171.171875 273.105469 171.328125 273.105469 171.171875 C 272.320312 170.5 272.007812 171.597656 271.449219 171.734375 L 271.449219 171.328125 C 271.3125 171.84375 270.683594 171.597656 270.417969 171.914062 L 270.417969 171.734375 L 270.417969 172.046875 L 270.28125 171.6875 C 269.832031 171.800781 269.496094 172.273438 269.070312 172.449219 L 269.070312 172.113281 C 268.871094 172.832031 268.195312 172.382812 267.859375 172.808594 L 267.859375 172.5625 C 266.773438 172.992188 265.796875 173.597656 264.925781 174.378906 L 264.925781 174.132812 C 264.925781 174.265625 264.925781 174.492188 264.925781 174.492188 C 264.90625 174.421875 264.90625 174.355469 264.925781 174.289062 C 264.5 173.839844 264.410156 174.894531 264.09375 174.535156 C 264.09375 174.535156 264.09375 174.847656 264.09375 175.007812 C 263.261719 175.441406 262.511719 175.996094 261.851562 176.664062 C 261.757812 176.554688 261.691406 176.425781 261.652344 176.285156 C 261.292969 177.449219 260.394531 177.425781 259.613281 177.585938 C 259.613281 177.832031 259.792969 177.785156 259.8125 178.054688 C 259.835938 178.324219 260.015625 177.316406 260.394531 177.652344 L 260.394531 177.875 C 260.597656 177.875 260.195312 177.316406 260.394531 177.515625 C 260.472656 177.597656 260.519531 177.695312 260.53125 177.808594 C 260.820312 177.585938 261.25 177.652344 261.359375 176.980469 C 261.628906 177.425781 261.71875 176.84375 262.011719 177.25 C 262.011719 177.023438 262.011719 177.046875 262.011719 176.710938 C 263.21875 176.292969 264.382812 175.777344 265.507812 175.164062 C 265.730469 174.019531 266.828125 174.894531 267.390625 174.332031 C 267.445312 174.179688 267.542969 174.054688 267.679688 173.960938 C 267.8125 173.863281 267.964844 173.816406 268.128906 173.816406 L 268.128906 173.347656 C 270.011719 173.640625 271.425781 172.496094 273.171875 172.359375 C 274.921875 172.226562 276.917969 172.359375 278.398438 170.546875 C 278.398438 170.546875 278.398438 170.679688 278.398438 170.726562 C 278.890625 170.410156 279.449219 170.726562 279.898438 170.320312 C 280.953125 169.199219 282.5 169.804688 283.507812 168.683594 C 285.089844 168.429688 286.636719 168.042969 288.148438 167.519531 L 288.148438 167.699219 C 289.335938 167.09375 290.703125 167.898438 291.914062 167.429688 C 293.257812 167.699219 294.402344 165.90625 295.792969 166.375 C 296.710938 167.25 297.539062 165.054688 298.414062 165.996094 C 300.117188 167.363281 301.53125 166.242188 303.054688 165.253906 C 304.535156 165.703125 305.921875 164.269531 307.382812 165.253906 C 308.03125 164.515625 308.792969 166.085938 309.621094 165.882812 L 309.621094 165.636719 C 309.914062 166.375 310.207031 164.605469 310.382812 165.636719 C 310.519531 166.195312 310.699219 164.3125 310.789062 164.984375 L 310.789062 165.164062 C 310.96875 165.164062 310.789062 165.480469 310.945312 165.589844 C 311.101562 165.703125 310.363281 165.164062 310.363281 165.164062 C 310.363281 166.285156 310.765625 164.917969 310.789062 166.175781 C 310.789062 166.175781 310.921875 166.667969 310.789062 166.9375 C 310.652344 167.207031 311.101562 167.046875 311.078125 166.511719 Z M 310.453125 164.023438 C 310.453125 164.023438 310.472656 163.933594 310.472656 163.910156 Z M 255.734375 191.304688 L 255.734375 191.640625 Z M 256.046875 190.808594 L 256.046875 190.585938 L 255.777344 191.503906 C 255.847656 192.066406 256.023438 190.453125 256.046875 190.808594 Z M 256.046875 190.808594 C 256.046875 191.035156 256.183594 190.609375 256.203125 190.453125 C 256.226562 190.878906 256.113281 190.429688 256.113281 190.898438 Z M 299.535156 185.496094 C 299.449219 184.992188 299.300781 184.507812 299.085938 184.039062 L 299.085938 184.445312 C 298.996094 184.296875 298.929688 184.140625 298.886719 183.972656 C 298.683594 183.972656 298.503906 183.390625 298.300781 183.1875 C 298.300781 183.703125 298.144531 183.457031 298.078125 183.390625 L 298.078125 183.1875 C 297.898438 182.71875 298.078125 184.152344 298.078125 183.34375 C 297.75 183.59375 297.382812 183.765625 296.980469 183.859375 C 296.980469 184.175781 296.664062 183.859375 296.980469 184.464844 C 296.710938 183.816406 296.375 183.75 296.261719 183.792969 C 296.148438 183.839844 296.261719 183.660156 296.261719 183.679688 C 295.8125 182.851562 296.261719 184.554688 295.746094 183.523438 C 295.902344 184.285156 295.320312 183.367188 295.433594 184.285156 C 295.371094 184.144531 295.324219 183.992188 295.296875 183.839844 C 294.941406 183.839844 294.46875 183.839844 294.175781 183.839844 C 294.175781 184.554688 293.484375 183.679688 293.484375 184.667969 C 293.234375 184.511719 292.855469 184.195312 292.675781 184.667969 L 292.675781 184.535156 C 292.476562 184.59375 292.3125 184.707031 292.1875 184.871094 C 292.058594 185.035156 291.992188 185.222656 291.980469 185.429688 C 291.691406 184.554688 291.621094 184.757812 291.421875 184.511719 C 291.421875 184.960938 290.90625 184.9375 290.679688 185.363281 C 290.546875 184.960938 290.480469 185.585938 290.34375 185.003906 C 289.738281 186.304688 288.617188 186.148438 287.566406 185.429688 C 287.566406 185.789062 287.566406 186.484375 287.566406 186.933594 C 287.566406 186.933594 287.566406 186.773438 287.566406 186.773438 C 287.566406 186.773438 287.160156 186.347656 287.027344 186.507812 C 287.015625 186.4375 287.015625 186.371094 287.027344 186.304688 C 287.027344 186.597656 286.625 185.878906 286.535156 186.304688 L 286.535156 186.148438 L 286.535156 186.394531 C 286.535156 186.191406 286.535156 185.902344 286.535156 185.945312 C 285.097656 185.945312 283.800781 187.269531 282.320312 187.3125 L 282.320312 187.132812 L 282.09375 187.492188 C 282.070312 187.433594 282.070312 187.371094 282.09375 187.3125 C 281.691406 187.023438 281.378906 187.628906 281.019531 187.605469 C 281.019531 187.605469 281.019531 187.289062 281.019531 187.199219 C 280.839844 187.785156 280.503906 186.550781 280.527344 187.695312 C 280.503906 187.558594 280.503906 187.425781 280.527344 187.289062 C 279.835938 187.738281 279.089844 187.882812 278.285156 187.714844 C 277.792969 188.816406 277.007812 187.941406 276.445312 188.816406 L 276.445312 188.703125 C 275.683594 189.511719 274.742188 188.703125 273.914062 189.015625 C 273.554688 189.015625 273.332031 189.21875 272.972656 189.261719 L 272.972656 188.996094 C 272.410156 190.003906 271.648438 188.1875 271.089844 189.308594 L 271.089844 188.949219 C 271.089844 189.488281 270.707031 188.792969 270.773438 189.6875 L 270.773438 189.421875 C 270.394531 190.652344 269.96875 188.90625 269.476562 189.710938 L 269.476562 189.488281 C 269.339844 189.667969 269.183594 189.800781 269.070312 189.488281 C 268.960938 189.171875 269.070312 189.488281 269.070312 189.332031 C 268.601562 188.480469 268.152344 189.464844 267.679688 189.441406 L 267.679688 189.039062 C 267.480469 189.511719 267.054688 189.039062 266.761719 189.308594 L 266.761719 189.105469 L 266.628906 189.375 L 266.628906 188.996094 C 266.246094 188.996094 265.886719 189.308594 265.53125 189.351562 L 265.53125 189.015625 C 265.171875 189.621094 264.789062 189.015625 264.429688 189.285156 L 264.429688 189.152344 C 263.480469 189.191406 262.578125 189.414062 261.71875 189.824219 C 261.71875 189.957031 261.71875 190.183594 261.585938 190.136719 C 261.558594 190.070312 261.558594 190.003906 261.585938 189.9375 C 261.40625 189.375 261 190.292969 260.890625 189.9375 C 260.847656 190.09375 260.847656 190.25 260.890625 190.40625 C 260.109375 190.5 259.363281 190.707031 258.648438 191.035156 C 258.625 190.890625 258.625 190.75 258.648438 190.609375 C 257.953125 191.503906 257.304688 191.101562 256.675781 190.898438 C 256.675781 191.144531 256.675781 191.167969 256.675781 191.414062 C 256.675781 191.660156 257.101562 190.832031 257.257812 191.414062 L 257.257812 191.640625 C 257.390625 191.796875 257.257812 191.058594 257.4375 191.371094 C 257.617188 191.683594 257.4375 191.660156 257.4375 191.683594 C 257.4375 191.707031 258.019531 191.839844 258.335938 191.28125 C 258.335938 191.796875 258.648438 191.28125 258.738281 191.796875 C 258.738281 191.617188 258.894531 191.660156 258.9375 191.324219 C 259.976562 191.460938 261.015625 191.460938 262.054688 191.324219 C 262.570312 190.339844 263.132812 191.527344 263.738281 191.324219 C 263.804688 191.203125 263.90625 191.121094 264.039062 191.078125 C 264.171875 191.035156 264.304688 191.042969 264.429688 191.101562 L 264.609375 190.675781 C 265.976562 191.527344 267.367188 190.921875 268.757812 191.234375 C 270.148438 191.550781 271.761719 192.066406 273.242188 190.675781 C 273.242188 190.675781 273.242188 190.808594 273.242188 190.855469 C 273.667969 190.628906 274.09375 190.96875 274.496094 190.71875 C 275.460938 189.847656 276.738281 190.71875 277.566406 189.6875 C 278.863281 189.640625 280.125 189.410156 281.355469 188.996094 L 281.355469 189.195312 C 282.296875 188.636719 283.417969 189.554688 284.382812 189.0625 C 285.503906 189.332031 286.332031 187.628906 287.476562 188.007812 C 288.28125 188.835938 288.753906 186.664062 289.539062 187.515625 C 291.0625 188.746094 292.09375 187.515625 293.101562 186.371094 C 294.355469 186.640625 295.140625 185.003906 296.488281 185.8125 C 296.824219 185.003906 297.808594 186.371094 298.324219 186.011719 L 298.324219 185.765625 C 298.726562 186.4375 298.503906 184.644531 298.929688 185.765625 C 299.175781 186.28125 298.929688 184.445312 299.0625 185.050781 L 299.0625 184.78125 C 299.0625 184.667969 299.0625 185.09375 299.289062 185.160156 C 299.511719 185.226562 299.152344 184.667969 299.289062 184.800781 C 299.601562 185.878906 299.535156 184.488281 299.894531 185.699219 C 299.894531 185.699219 300.140625 186.148438 300.050781 186.4375 C 299.960938 186.730469 299.757812 186.101562 299.601562 185.585938 Z M 287.40625 185.363281 Z M 298.324219 183.121094 C 298.324219 183.121094 298.414062 183.210938 298.390625 183.210938 Z M 237.308594 201.03125 L 237.667969 201.03125 Z M 238.316406 201.503906 L 238.496094 201.390625 L 237.441406 201.390625 C 237.039062 201.703125 238.628906 201.257812 238.316406 201.503906 Z M 238.316406 201.660156 C 238.203125 201.929688 238.628906 201.816406 238.765625 201.792969 C 238.382812 201.882812 238.628906 201.4375 238.273438 201.660156 Z M 298.839844 205.605469 Z M 321.792969 200.023438 C 321.570312 199.507812 321.503906 198.992188 321.054688 198.699219 L 321.1875 199.105469 C 321.0625 198.976562 320.960938 198.835938 320.875 198.679688 C 320.515625 198.679688 320.203125 198.273438 319.867188 198.164062 C 319.867188 198.679688 319.574219 198.519531 319.417969 198.519531 L 319.328125 198.363281 C 319.039062 197.984375 319.328125 199.394531 319.128906 198.609375 C 318.496094 199.097656 317.816406 199.503906 317.085938 199.820312 C 317.085938 200.15625 316.503906 200.046875 316.90625 200.539062 C 316.761719 200.339844 316.570312 200.207031 316.332031 200.140625 C 316.09375 200.074219 315.859375 200.085938 315.628906 200.179688 C 315.628906 200.179688 315.628906 200.046875 315.628906 200.046875 C 314.867188 199.394531 315.496094 201.03125 314.667969 200.179688 C 314.933594 200.921875 313.902344 200.179688 314.0625 201.167969 C 313.945312 201.050781 313.863281 200.917969 313.8125 200.761719 C 313.140625 201.054688 312.289062 201.078125 311.707031 201.277344 C 311.460938 202.085938 310.40625 201.4375 310.316406 202.488281 C 309.890625 202.488281 309.195312 202.308594 308.835938 202.824219 L 308.835938 202.691406 C 308.300781 202.9375 307.628906 203.230469 307.425781 203.925781 C 306.953125 203.140625 306.777344 203.386719 306.4375 203.207031 C 306.214844 203.722656 305.429688 203.878906 304.960938 204.417969 C 304.734375 204.058594 304.535156 204.730469 304.308594 204.171875 C 303.976562 204.53125 303.597656 204.839844 303.175781 205.097656 C 302.753906 205.351562 302.304688 205.542969 301.828125 205.667969 C 301.351562 205.796875 300.867188 205.855469 300.375 205.84375 C 299.882812 205.832031 299.398438 205.753906 298.929688 205.605469 C 298.796875 205.984375 298.707031 206.726562 298.59375 207.195312 C 298.59375 207.195312 298.59375 207.0625 298.59375 207.039062 C 298.59375 207.015625 297.875 206.75 297.5625 207.039062 C 297.523438 206.972656 297.523438 206.90625 297.5625 206.839844 C 297.316406 207.175781 296.824219 206.5 296.574219 207.039062 L 296.574219 206.882812 L 296.398438 207.175781 C 296.398438 206.972656 296.398438 206.679688 296.398438 206.703125 C 293.59375 207.175781 290.925781 208.765625 287.992188 209.058594 L 287.992188 208.855469 L 287.476562 209.28125 C 287.457031 209.214844 287.457031 209.148438 287.476562 209.078125 C 286.691406 208.832031 286.039062 209.527344 285.234375 209.527344 C 285.234375 209.527344 285.234375 209.238281 285.234375 209.125 C 284.785156 209.730469 284.316406 208.519531 284.203125 209.683594 C 284.179688 209.550781 284.179688 209.414062 284.203125 209.28125 C 282.796875 209.800781 281.347656 210.003906 279.855469 209.886719 C 278.710938 211.007812 277.277344 210.199219 276.066406 211.050781 L 276.066406 210.851562 C 274.429688 211.65625 272.65625 210.851562 270.953125 211.050781 C 270.316406 211.078125 269.679688 211.136719 269.050781 211.230469 L 269.050781 210.984375 C 267.816406 211.902344 266.5625 210.019531 265.28125 210.984375 L 265.28125 210.648438 C 265.058594 211.1875 264.542969 210.402344 264.566406 211.320312 L 264.363281 211.03125 C 263.421875 212.195312 262.839844 210.359375 261.742188 211.03125 L 261.742188 210.828125 C 261.449219 210.960938 261.113281 211.074219 260.933594 210.828125 C 260.753906 210.582031 260.933594 210.828125 260.933594 210.671875 C 260.148438 209.730469 259.097656 210.671875 258.199219 210.445312 L 258.335938 210.042969 C 257.839844 210.46875 257.101562 210.042969 256.496094 210.042969 L 256.496094 209.863281 L 256.183594 210.089844 L 256.183594 209.707031 C 255.441406 209.574219 254.679688 209.707031 253.941406 209.707031 L 253.941406 209.371094 C 253.15625 209.84375 252.503906 209.078125 251.699219 209.167969 L 251.699219 209.058594 C 249.949219 208.496094 248.179688 208.5625 246.363281 208.046875 L 246.5 207.914062 C 246.363281 207.914062 246.183594 208.136719 246.117188 208.070312 C 246.050781 208.003906 246.117188 207.9375 246.25 207.914062 C 246.25 207.242188 245.042969 207.757812 245.042969 207.242188 C 244.90625 207.242188 244.75 207.421875 244.703125 207.621094 C 243.335938 207.039062 241.949219 206.234375 240.492188 205.382812 C 240.527344 205.21875 240.613281 205.101562 240.757812 205.023438 C 239.125 204.707031 238.519531 203.160156 237.980469 201.863281 C 237.734375 201.863281 237.800781 202.109375 237.507812 202.085938 C 237.507812 202.667969 238.449219 202.554688 238.292969 203.140625 L 238.628906 203.273438 C 238.628906 203.632812 239.167969 203.003906 239.078125 203.453125 C 238.988281 203.902344 238.808594 203.585938 238.832031 203.65625 C 239.300781 204.125 239.550781 204.867188 240.421875 204.910156 C 240.132812 205.382812 240.871094 205.449219 240.691406 205.964844 C 240.960938 205.964844 241.050781 205.964844 241.320312 205.964844 C 242.976562 207.503906 244.878906 208.617188 247.035156 209.304688 C 248.335938 208.742188 249.054688 210.269531 250.332031 210.289062 C 250.828125 210.148438 251.304688 210.195312 251.765625 210.425781 L 252.238281 210.109375 C 254.746094 211.613281 257.660156 211.277344 260.351562 211.925781 C 263.445312 212.464844 266.222656 213.339844 269.316406 212.082031 C 269.316406 212.082031 269.316406 212.242188 269.316406 212.285156 C 270.214844 212.082031 271.023438 212.417969 271.851562 212.285156 C 273.890625 211.5 276.132812 212.285156 278.082031 211.320312 C 279.269531 211.320312 280.546875 211.164062 281.847656 211.007812 C 283.148438 210.851562 284.425781 210.582031 285.660156 210.3125 L 285.660156 210.515625 C 287.609375 209.796875 289.738281 210.515625 291.667969 209.863281 C 293.910156 209.863281 295.65625 207.890625 297.832031 208.003906 C 299.332031 208.632812 300.433594 206.144531 301.890625 206.816406 C 304.714844 207.554688 306.820312 205.875 308.835938 204.171875 C 311.214844 203.878906 312.828125 201.773438 315.292969 201.929688 C 315.964844 200.851562 317.714844 201.929688 318.679688 201.144531 L 318.476562 201.03125 C 319.171875 201.503906 318.878906 199.664062 319.597656 200.5625 C 320.046875 200.988281 319.597656 199.148438 319.910156 199.6875 L 319.910156 199.441406 C 320.113281 199.238281 320.070312 199.710938 320.316406 199.710938 C 320.5625 199.710938 320.113281 199.238281 320.316406 199.304688 C 320.851562 200.316406 320.808594 198.8125 321.390625 199.933594 C 321.257812 199.933594 321.816406 200.269531 321.636719 200.652344 C 321.457031 201.03125 322.085938 200.492188 321.792969 200.023438 Z M 319.753906 198.117188 C 319.753906 198.117188 319.777344 198.140625 319.753906 198.117188 Z M 235.851562 220.9375 L 236.164062 220.9375 Z M 236.679688 220.9375 L 236.859375 220.804688 L 235.917969 221.050781 C 235.515625 221.410156 236.949219 220.738281 236.679688 220.960938 Z M 236.679688 220.9375 C 236.523438 221.140625 236.925781 220.9375 237.0625 220.9375 C 236.703125 221.207031 237.039062 220.824219 236.636719 221.050781 Z M 263.265625 236.628906 Z M 273.757812 240.238281 C 273.757812 239.835938 273.757812 240.035156 273.757812 239.722656 C 273.757812 239.410156 273.53125 239.074219 273.421875 238.828125 C 273.421875 239.320312 273.21875 239.027344 273.152344 238.960938 L 273.152344 238.738281 C 273.152344 238.242188 272.996094 239.679688 273.015625 238.847656 C 272.671875 239.03125 272.304688 239.097656 271.917969 239.050781 C 271.917969 239.363281 271.625 239.050781 271.695312 239.632812 C 271.695312 238.917969 271.359375 238.738281 271.246094 238.757812 C 271.132812 238.78125 271.246094 238.625 271.246094 238.757812 C 271.109375 237.839844 270.953125 239.589844 270.863281 238.46875 C 270.863281 239.230469 270.550781 238.175781 270.347656 239.074219 C 270.335938 238.921875 270.335938 238.773438 270.347656 238.625 C 270.011719 238.625 269.675781 238.242188 269.40625 238.175781 C 269.070312 238.828125 268.890625 237.773438 268.511719 238.667969 C 268.375 238.445312 268.175781 238.019531 267.859375 238.332031 L 267.859375 238.222656 C 267.664062 238.195312 267.480469 238.226562 267.304688 238.324219 C 267.128906 238.417969 267 238.554688 266.917969 238.738281 C 267.042969 238.378906 267.042969 238.019531 266.917969 237.660156 C 266.652344 238.019531 266.3125 237.839844 265.957031 238.109375 C 265.957031 237.707031 265.664062 238.109375 265.820312 237.636719 C 264.746094 238.535156 263.847656 237.816406 263.378906 236.695312 C 263.152344 236.988281 262.792969 237.570312 262.546875 237.929688 C 262.546875 237.929688 262.546875 237.773438 262.546875 237.796875 C 262.546875 237.816406 262.4375 237.234375 262.234375 237.28125 L 262.234375 237.101562 C 261.988281 237.300781 262.234375 236.539062 261.785156 236.898438 L 261.785156 236.742188 L 261.585938 236.921875 C 261.585938 236.742188 261.785156 236.449219 261.808594 236.539062 C 260.664062 235.84375 258.960938 236.160156 257.773438 235.328125 L 257.90625 235.195312 L 257.503906 235.351562 L 257.503906 235.195312 C 257.371094 234.746094 256.789062 235.039062 256.519531 234.792969 C 256.617188 234.695312 256.695312 234.585938 256.742188 234.457031 C 256.25 234.8125 256.742188 233.648438 256.070312 234.457031 C 256.117188 234.332031 256.183594 234.21875 256.273438 234.117188 C 255.503906 234.058594 254.875 233.730469 254.390625 233.132812 C 253.3125 233.671875 253.289062 232.527344 252.304688 232.839844 L 252.4375 232.683594 C 251.363281 232.796875 251.09375 231.675781 250.355469 231.292969 C 250.105469 231.027344 249.792969 231.070312 249.503906 230.867188 L 249.636719 230.667969 C 248.582031 231.09375 249.1875 229.230469 248.046875 229.703125 L 248.292969 229.457031 C 247.886719 229.816406 248.113281 229.074219 247.574219 229.835938 L 247.574219 229.546875 C 246.5 230.242188 247.328125 228.628906 246.429688 228.941406 L 246.609375 228.785156 C 246.386719 228.785156 246.183594 228.785156 246.230469 228.628906 C 246.429688 227.683594 245.488281 228.132812 245.152344 227.820312 L 245.445312 227.527344 C 244.972656 227.773438 244.929688 227.171875 244.570312 227.171875 L 244.703125 227.035156 L 244.4375 227.035156 L 244.660156 226.742188 C 244.390625 226.476562 243.921875 226.519531 243.605469 226.339844 L 243.832031 226.070312 C 243.179688 226.339844 243.292969 225.625 242.84375 225.601562 C 242.238281 224.90625 241.230469 224.816406 240.402344 224.390625 L 240.535156 224.390625 C 240.535156 224.390625 240.246094 224.570312 240.222656 224.523438 C 240.261719 224.46875 240.316406 224.421875 240.378906 224.390625 C 240.648438 223.851562 239.707031 224.277344 239.953125 223.875 C 239.953125 223.875 239.683594 224.03125 239.570312 224.167969 C 238.929688 223.6875 238.25 223.269531 237.53125 222.910156 C 237.617188 222.789062 237.71875 222.695312 237.84375 222.621094 C 236.703125 222.621094 236.589844 221.8125 236.386719 221.164062 C 236.140625 221.164062 236.1875 221.339844 235.941406 221.410156 C 235.695312 221.476562 236.65625 221.410156 236.386719 221.878906 L 236.164062 221.878906 C 236.164062 222.105469 236.703125 221.589844 236.523438 221.878906 C 236.34375 222.171875 236.253906 222.035156 236.253906 222.082031 C 236.253906 222.125 236.523438 222.710938 237.171875 222.597656 C 236.816406 222.957031 237.351562 222.886719 237.039062 223.269531 C 237.242188 223.269531 237.261719 223.269531 237.554688 223.113281 C 238.023438 224.144531 239.144531 224.59375 239.796875 225.355469 C 240.828125 224.972656 240.46875 226.226562 241.140625 226.363281 C 241.269531 226.3125 241.398438 226.316406 241.527344 226.367188 C 241.65625 226.417969 241.753906 226.507812 241.8125 226.632812 L 242.214844 226.40625 C 242.710938 227.933594 244.144531 228.289062 244.972656 229.410156 C 245.804688 230.53125 246.65625 231.945312 248.648438 231.808594 C 248.648438 231.808594 248.648438 231.921875 248.492188 231.945312 C 248.964844 231.945312 249.074219 232.574219 249.523438 232.640625 C 250.824219 232.640625 251.183594 233.960938 252.484375 233.78125 C 253.484375 234.574219 254.589844 235.171875 255.800781 235.574219 L 255.800781 235.734375 C 256.855469 235.890625 257.214844 237.257812 258.265625 237.4375 C 259.007812 238.3125 260.644531 237.4375 261.335938 238.265625 C 261.605469 239.410156 263.109375 237.75 263.308594 238.871094 C 264.003906 240.710938 265.550781 240.125 266.898438 239.476562 C 267.929688 240.238281 269.140625 239.050781 270.148438 240.214844 C 270.707031 239.542969 271.179688 241.179688 271.804688 240.957031 L 271.804688 240.730469 C 272.007812 241.472656 272.253906 239.679688 272.410156 240.730469 C 272.410156 241.292969 272.636719 239.410156 272.703125 240.058594 L 272.703125 239.789062 C 272.835938 239.789062 272.703125 240.105469 272.835938 240.214844 C 272.972656 240.328125 272.835938 239.699219 272.835938 239.859375 C 272.835938 241 273.152344 239.609375 273.21875 240.867188 C 273.21875 240.867188 273.375 241.359375 273.21875 241.628906 C 273.0625 241.898438 273.488281 241.628906 273.441406 241.15625 C 273.476562 240.644531 273.441406 240.136719 273.332031 239.632812 Z M 273.285156 238.738281 C 273.285156 238.738281 273.242188 238.894531 273.242188 238.871094 Z M 228.835938 226.476562 L 228.722656 226.476562 L 229.011719 226.609375 Z M 229.441406 227.082031 L 229.664062 227.082031 L 228.8125 226.632812 C 228.273438 226.65625 229.796875 227.082031 229.441406 227.082031 Z M 229.441406 227.082031 C 229.191406 227.082031 229.617188 227.257812 229.753906 227.304688 C 229.351562 227.257812 229.820312 227.191406 229.351562 227.125 Z M 248.089844 253.777344 Z M 256.136719 261.558594 C 255.777344 261.914062 255.847656 261.558594 255.847656 261.558594 L 255.847656 261.355469 C 256.09375 260.929688 255.105469 262.003906 255.644531 261.355469 C 255.242188 261.261719 254.882812 261.082031 254.566406 260.816406 C 254.320312 261.019531 254.320312 260.59375 254.03125 261.132812 C 254.367188 260.527344 254.230469 260.191406 254.03125 260.144531 C 253.828125 260.101562 254.03125 260.144531 254.03125 260.144531 C 254.410156 259.292969 253.3125 260.617188 253.828125 259.628906 C 253.3125 260.210938 253.695312 259.203125 253.019531 259.851562 C 253.101562 259.710938 253.199219 259.585938 253.3125 259.472656 C 253.019531 259.226562 252.910156 258.753906 252.683594 258.507812 C 252.035156 258.867188 252.394531 257.859375 251.609375 258.507812 C 251.609375 258.238281 251.609375 257.746094 251.183594 257.835938 C 251.015625 257.714844 250.828125 257.65625 250.621094 257.65625 C 250.417969 257.65625 250.230469 257.714844 250.0625 257.835938 C 250.621094 257.117188 250.398438 257.164062 250.511719 256.871094 C 250.0625 257.027344 249.859375 256.671875 249.367188 256.714844 C 249.636719 256.378906 249.074219 256.714844 249.480469 256.222656 C 248.046875 256.445312 247.574219 255.371094 247.597656 253.980469 C 247.261719 254.136719 246.65625 254.519531 246.273438 254.699219 C 246.273438 254.699219 246.273438 254.699219 246.410156 254.699219 C 246.542969 254.699219 246.519531 254.136719 246.410156 254.09375 L 246.566406 253.980469 C 246.25 253.980469 246.699219 253.398438 246.230469 253.578125 L 246.339844 253.578125 L 246.09375 253.578125 C 246.25 253.441406 246.476562 253.242188 246.476562 253.332031 C 245.667969 252.121094 243.898438 251.648438 243.089844 250.347656 L 243.269531 250.347656 L 243.113281 250.347656 L 243.292969 250.347656 C 243.292969 249.855469 242.644531 249.902344 242.484375 249.542969 C 242.328125 249.183594 242.753906 249.542969 242.800781 249.316406 C 242.214844 249.429688 243.113281 248.53125 242.128906 249.117188 C 242.226562 249.023438 242.339844 248.949219 242.464844 248.890625 C 241.734375 248.519531 241.242188 247.941406 240.984375 247.164062 C 239.773438 247.164062 240.132812 246.132812 239.101562 246.066406 L 239.257812 245.933594 C 238.183594 245.640625 238.316406 244.476562 237.710938 243.691406 C 237.710938 243.355469 237.242188 243.265625 237.039062 242.972656 L 237.261719 242.816406 C 236.097656 242.816406 237.261719 241.269531 236.050781 241.292969 L 236.367188 241.136719 C 235.851562 241.335938 236.367188 240.710938 235.558594 241.136719 L 235.738281 240.890625 C 234.460938 241.15625 235.738281 239.925781 234.84375 239.859375 L 235.042969 239.859375 C 234.820312 239.859375 234.617188 239.746094 234.753906 239.542969 L 234.910156 239.542969 C 235.402344 238.714844 234.328125 238.78125 234.125 238.355469 L 234.503906 238.199219 C 233.96875 238.199219 234.148438 237.660156 233.8125 237.503906 L 233.96875 237.503906 L 233.675781 237.503906 L 234.148438 236.898438 C 233.988281 236.5625 233.519531 236.40625 233.296875 236.089844 L 233.609375 235.933594 C 232.890625 235.933594 233.25 235.285156 232.847656 235.082031 L 232.957031 235.082031 C 232.667969 234.1875 231.769531 233.671875 231.1875 232.839844 L 231.367188 232.839844 C 231.253906 232.839844 231.03125 232.839844 231.03125 232.839844 C 231.097656 232.820312 231.164062 232.820312 231.234375 232.839844 C 231.726562 232.484375 230.695312 232.394531 231.074219 232.144531 C 230.917969 232.085938 230.761719 232.085938 230.605469 232.144531 C 230.261719 231.378906 229.882812 230.632812 229.460938 229.90625 C 229.605469 229.871094 229.746094 229.871094 229.886719 229.90625 C 228.878906 229.253906 229.304688 228.359375 229.574219 227.664062 C 229.351562 227.664062 229.304688 227.664062 229.058594 227.664062 C 228.722656 227.886719 229.597656 228.199219 229.058594 228.378906 L 228.835938 228.378906 C 228.65625 228.539062 229.417969 228.378906 229.101562 228.605469 C 228.789062 228.828125 228.8125 228.605469 228.789062 228.605469 C 228.789062 228.964844 228.632812 229.367188 229.214844 229.679688 C 228.699219 229.679688 229.214844 230.0625 228.746094 230.21875 C 228.945312 230.21875 228.902344 230.398438 229.238281 230.398438 C 229.324219 231.597656 229.667969 232.71875 230.269531 233.761719 C 231.390625 233.894531 230.515625 234.925781 231.097656 235.351562 C 231.414062 235.351562 231.636719 235.644531 231.636719 235.914062 L 231.90625 235.914062 C 231.792969 237.59375 233.070312 238.535156 233.496094 239.925781 C 233.921875 241.316406 234.257812 243.039062 236.210938 243.644531 L 236.03125 243.644531 C 236.433594 243.914062 236.367188 244.453125 236.769531 244.699219 C 238.046875 245.148438 237.914062 246.605469 239.234375 246.941406 C 239.921875 248.089844 240.765625 249.105469 241.769531 249.988281 L 241.613281 250.101562 C 242.574219 250.664062 242.375 252.121094 243.292969 252.726562 C 243.628906 253.867188 245.535156 253.6875 245.847656 254.964844 C 245.578125 256.132812 247.707031 255.347656 247.417969 256.492188 C 247.238281 258.484375 248.851562 258.734375 250.398438 258.890625 C 250.9375 260.101562 252.640625 259.832031 252.910156 261.378906 C 253.761719 261.152344 253.246094 262.789062 253.875 262.992188 L 254.007812 262.789062 C 253.738281 263.507812 255.015625 262.230469 254.476562 263.214844 C 254.230469 263.730469 255.464844 262.296875 255.128906 262.878906 L 255.308594 262.679688 C 255.464844 262.679688 255.152344 262.925781 255.171875 263.082031 C 255.195312 263.238281 255.464844 262.679688 255.441406 262.855469 C 254.792969 263.796875 255.867188 262.855469 255.128906 263.910156 C 255.128906 263.910156 254.949219 264.382812 254.65625 264.492188 C 254.367188 264.605469 254.859375 264.71875 255.152344 264.269531 C 255.5 263.898438 255.773438 263.480469 255.980469 263.015625 L 255.734375 263.328125 C 255.804688 263.171875 255.886719 263.023438 255.980469 262.878906 C 255.867188 262.722656 256.183594 262.207031 256.226562 261.9375 Z M 179.363281 180.855469 L 179.046875 180.855469 Z M 178.351562 180.429688 L 179.25 180.746094 C 179.789062 180.746094 178.21875 180.453125 178.578125 180.453125 Z M 178.6875 180.429688 C 178.914062 180.429688 178.488281 180.296875 178.332031 180.25 C 178.667969 180.25 178.21875 180.296875 178.6875 180.363281 Z M 202.605469 165.164062 Z M 179.046875 180.25 C 179.382812 180.117188 178.507812 179.804688 179.046875 179.714844 L 179.273438 179.714844 C 179.453125 179.714844 178.6875 179.558594 179.003906 179.488281 C 179.109375 179.476562 179.210938 179.476562 179.316406 179.488281 C 179.316406 179.222656 179.5625 179.019531 179.070312 178.636719 C 179.585938 178.636719 179.070312 178.367188 179.675781 178.414062 C 179.496094 178.300781 179.5625 178.257812 179.25 178.121094 C 179.808594 177.359375 179.699219 176.304688 180.214844 175.476562 C 179.585938 174.582031 180.863281 174.691406 180.910156 174.109375 C 180.847656 173.992188 180.835938 173.871094 180.863281 173.746094 C 180.894531 173.617188 180.960938 173.515625 181.066406 173.4375 L 180.863281 173.054688 C 182.296875 172.5625 182.769531 171.261719 184.023438 170.679688 C 185.28125 170.097656 186.691406 169.960938 187.386719 168.167969 C 187.386719 168.167969 187.386719 168.28125 187.386719 168.347656 C 187.679688 167.988281 188.148438 168.125 188.441406 167.832031 C 189.066406 166.710938 190.34375 167.273438 191.085938 166.242188 C 192.25 166.085938 193.574219 165.882812 194.851562 165.660156 L 194.851562 165.839844 C 195.90625 165.457031 196.777344 166.578125 197.765625 166.441406 C 198.660156 167.027344 200.007812 165.792969 200.949219 166.691406 C 201.21875 167.8125 202.785156 166.152344 202.964844 167.363281 C 203.503906 169.222656 204.847656 168.910156 206.460938 168.84375 C 207.113281 169.917969 208.929688 169.558594 209.0625 171.082031 C 209.960938 170.925781 209.289062 172.496094 209.824219 172.742188 L 210.003906 172.5625 C 209.601562 173.214844 211.082031 172.183594 210.363281 173.035156 C 210.027344 173.480469 211.527344 172.339844 211.082031 172.855469 L 211.304688 172.675781 C 211.4375 172.675781 211.082031 172.898438 211.058594 173.054688 C 211.035156 173.214844 211.4375 172.71875 211.394531 172.898438 C 210.542969 173.640625 211.796875 172.898438 210.832031 173.816406 C 210.832031 173.816406 210.519531 174.222656 210.230469 174.265625 C 209.9375 174.3125 210.339844 174.511719 210.746094 174.265625 C 211.175781 173.996094 211.554688 173.664062 211.886719 173.28125 L 211.550781 173.527344 L 211.910156 173.144531 C 211.910156 172.964844 212.292969 172.5625 212.378906 172.292969 C 211.953125 172.5625 212.089844 172.292969 212.089844 172.160156 L 212.246094 171.980469 C 212.582031 171.621094 211.394531 172.449219 212.042969 171.980469 C 211.652344 171.785156 211.308594 171.523438 211.011719 171.195312 C 210.746094 171.375 210.789062 170.925781 210.429688 171.441406 C 210.855469 170.859375 210.746094 170.5 210.632812 170.433594 C 210.519531 170.367188 210.632812 170.433594 210.632812 170.433594 C 211.082031 169.625 209.871094 170.859375 210.429688 169.894531 C 209.890625 170.457031 210.296875 169.445312 209.601562 170.050781 C 209.679688 169.910156 209.777344 169.785156 209.890625 169.671875 C 209.601562 169.402344 209.421875 168.910156 209.175781 168.664062 C 208.523438 169.019531 208.792969 167.96875 208.03125 168.664062 C 208.03125 168.371094 207.917969 167.855469 207.472656 168.011719 C 207.296875 167.878906 207.097656 167.8125 206.878906 167.8125 C 206.65625 167.8125 206.460938 167.878906 206.285156 168.011719 C 206.6875 167.183594 206.460938 167.273438 206.484375 166.9375 C 206.105469 167.183594 205.769531 166.9375 205.296875 166.9375 C 205.453125 166.554688 204.984375 166.9375 205.296875 166.421875 C 203.929688 167.027344 203.054688 166.21875 202.496094 165.03125 C 202.269531 165.324219 201.890625 165.925781 201.644531 166.265625 C 201.644531 166.265625 201.644531 166.105469 201.644531 166.128906 C 201.644531 166.152344 201.488281 165.546875 201.261719 165.613281 L 201.261719 165.433594 C 201.039062 165.636719 201.082031 164.875 200.746094 165.253906 L 200.746094 165.097656 L 200.566406 165.277344 C 200.566406 165.074219 200.722656 164.808594 200.769531 164.875 C 199.289062 164.222656 197.519531 164.875 195.996094 164.648438 L 195.996094 164.46875 L 195.679688 164.785156 C 195.664062 164.71875 195.664062 164.648438 195.679688 164.582031 C 195.300781 164.222656 194.875 164.785156 194.515625 164.695312 C 194.539062 164.558594 194.539062 164.425781 194.515625 164.292969 C 194.246094 164.828125 194.042969 163.574219 193.933594 164.71875 C 193.910156 164.582031 193.910156 164.449219 193.933594 164.3125 C 193.171875 164.652344 192.382812 164.773438 191.554688 164.671875 C 191.085938 165.769531 190.210938 164.984375 189.742188 165.949219 L 189.742188 165.75 C 189.113281 166.644531 188.058594 166.195312 187.273438 166.667969 C 186.914062 166.667969 186.78125 167.070312 186.46875 167.226562 L 186.332031 167.003906 C 186.332031 168.125 184.765625 166.871094 184.742188 168.125 L 184.585938 167.789062 C 184.785156 168.304688 184.160156 167.789062 184.695312 168.59375 L 184.832031 168.664062 C 185.144531 169.894531 183.84375 168.664062 183.890625 169.605469 L 183.777344 169.402344 C 183.777344 169.625 183.777344 169.828125 183.53125 169.738281 C 183.519531 169.6875 183.519531 169.632812 183.53125 169.582031 C 182.632812 169.179688 182.859375 170.253906 182.5 170.523438 L 182.277344 170.1875 C 182.433594 170.703125 181.804688 170.636719 181.761719 171.015625 L 181.625 170.882812 L 181.625 171.171875 L 181.355469 170.902344 C 181.066406 171.171875 181.042969 171.667969 180.839844 171.980469 L 180.570312 171.734375 C 180.820312 172.40625 180.101562 172.316406 180.054688 172.765625 C 179.5 173.566406 179.203125 174.457031 179.160156 175.433594 L 179.023438 175.320312 C 179.023438 175.433594 179.273438 175.566406 179.226562 175.589844 C 179.160156 175.570312 179.109375 175.53125 179.070312 175.476562 C 178.464844 175.476562 179.070312 176.148438 178.710938 176.058594 C 178.710938 176.058594 178.9375 176.261719 179.113281 176.304688 C 178.914062 177.054688 178.914062 177.800781 179.113281 178.546875 L 178.6875 178.4375 C 179.453125 179.265625 178.914062 179.714844 178.6875 180.273438 C 178.777344 180.230469 178.800781 180.140625 179.046875 180.25 Z M 212.425781 172.496094 C 212.425781 172.496094 212.425781 172.519531 212.425781 172.496094 Z M 210.566406 190.429688 L 210.566406 190.628906 Z M 210.339844 191.144531 L 210.339844 191.371094 L 210.476562 190.453125 C 210.453125 189.824219 210.363281 191.484375 210.339844 191.125 Z M 210.339844 191.144531 C 210.339844 190.921875 210.339844 191.347656 210.339844 191.503906 C 210.230469 191.058594 210.296875 191.503906 210.296875 191.035156 Z M 189.988281 189.53125 Z M 210.160156 191.304688 C 210.148438 191.132812 210.148438 190.960938 210.160156 190.789062 C 210.160156 190.472656 209.914062 191.394531 209.847656 190.921875 L 209.847656 190.699219 C 209.847656 190.519531 209.847656 191.28125 209.734375 190.96875 C 209.625 190.652344 209.734375 190.675781 209.734375 190.652344 C 209.734375 190.628906 209.445312 190.496094 209.199219 191.035156 C 209.199219 190.519531 209.019531 191.035156 209.039062 190.496094 C 209.039062 190.675781 208.929688 190.496094 208.839844 190.945312 C 208.324219 190.5625 207.605469 190.945312 206.976562 190.609375 C 206.351562 191.4375 206.417969 190.183594 205.96875 190.363281 C 205.769531 190.542969 205.566406 190.5625 205.476562 190.363281 L 205.183594 190.675781 C 204.738281 189.53125 203.660156 189.6875 202.945312 188.949219 C 202.226562 188.210938 201.507812 187.199219 200.007812 188.03125 C 200.007812 188.03125 200.007812 187.894531 200.007812 187.851562 C 199.648438 187.851562 199.515625 187.515625 199.15625 187.605469 C 198.214844 188.140625 197.742188 187.042969 196.914062 187.738281 C 196.0625 187.464844 195.195312 187.398438 194.3125 187.539062 L 194.3125 187.359375 C 193.597656 187.695312 192.992188 186.597656 192.273438 186.886719 C 191.535156 186.4375 190.816406 188.03125 190.03125 187.492188 C 189.492188 186.527344 189.136719 188.679688 188.621094 187.738281 C 187.542969 186.347656 186.804688 187.492188 186.242188 188.570312 C 185.347656 188.253906 185.054688 189.800781 184 189.015625 C 184 189.800781 182.992188 188.480469 182.679688 188.816406 L 182.792969 189.039062 C 182.367188 188.433594 182.925781 190.113281 182.386719 189.152344 C 182.074219 188.679688 182.792969 190.429688 182.386719 189.847656 L 182.386719 190.09375 C 182.386719 190.09375 182.253906 189.824219 182.140625 189.734375 C 182.027344 189.644531 182.34375 190.203125 182.140625 190.09375 C 181.625 189.0625 182.140625 190.40625 181.46875 189.261719 C 181.46875 189.261719 181.175781 188.859375 181.175781 188.570312 C 181.175781 188.277344 180.953125 188.570312 181.175781 189.0625 C 181.359375 189.535156 181.589844 189.984375 181.871094 190.40625 L 182.277344 189.824219 L 182.542969 190.273438 C 182.679688 190.273438 182.96875 190.808594 183.148438 191.011719 C 182.96875 190.542969 183.148438 190.765625 183.148438 190.808594 L 183.261719 191.011719 C 183.507812 191.4375 182.992188 190.113281 183.261719 190.878906 C 183.382812 190.617188 183.585938 190.449219 183.867188 190.382812 C 183.867188 190.070312 184.070312 190.382812 183.867188 189.777344 C 184.203125 190.40625 184.425781 190.496094 184.496094 190.453125 C 184.5625 190.40625 184.496094 190.585938 184.496094 190.5625 C 184.941406 191.347656 184.339844 189.710938 184.855469 190.699219 C 184.605469 189.957031 185.144531 190.855469 184.855469 189.980469 C 184.855469 190.136719 184.964844 190.273438 185.011719 190.40625 C 185.054688 190.542969 185.570312 190.542969 185.75 190.40625 C 185.75 189.6875 186.222656 190.585938 186.085938 189.644531 C 186.265625 189.800781 186.558594 190.113281 186.601562 189.644531 L 186.601562 189.824219 C 186.757812 189.710938 186.984375 189.621094 186.984375 189.015625 C 187.039062 189.367188 187.183594 189.683594 187.410156 189.957031 C 187.410156 189.53125 187.699219 189.578125 187.835938 189.171875 C 187.835938 189.578125 187.945312 188.972656 188.082031 189.578125 C 188.371094 188.320312 189.179688 188.613281 189.808594 189.441406 C 189.808594 189.085938 189.808594 188.390625 189.808594 187.964844 L 189.808594 188.121094 C 189.808594 188.121094 190.054688 188.589844 190.144531 188.480469 C 190.167969 188.539062 190.167969 188.597656 190.144531 188.65625 C 190.144531 188.390625 190.390625 189.128906 190.480469 188.65625 L 190.480469 188.816406 L 190.480469 188.589844 C 190.480469 188.792969 190.480469 189.085938 190.480469 189.015625 C 191.375 189.171875 192.316406 188.121094 193.28125 188.367188 L 193.28125 188.546875 L 193.484375 188.230469 C 193.5 188.292969 193.5 188.351562 193.484375 188.410156 C 193.683594 188.769531 194 188.230469 194.222656 188.410156 C 194.199219 188.546875 194.199219 188.679688 194.222656 188.816406 C 194.46875 188.300781 194.402344 189.554688 194.628906 188.433594 C 194.636719 188.570312 194.636719 188.703125 194.628906 188.835938 C 194.839844 188.6875 195.074219 188.609375 195.332031 188.609375 C 195.59375 188.609375 195.828125 188.6875 196.039062 188.835938 C 196.667969 187.917969 196.890625 188.949219 197.496094 188.253906 L 197.496094 188.433594 C 198.234375 187.917969 198.59375 188.792969 199.15625 188.859375 C 199.355469 189.015625 199.582031 188.859375 199.804688 188.859375 L 199.804688 189.085938 C 200.566406 188.34375 200.253906 190.203125 201.058594 189.398438 L 200.882812 189.710938 C 201.171875 189.242188 201.039062 189.980469 201.398438 189.128906 L 201.398438 189.421875 C 202.160156 188.433594 201.644531 190.136719 202.292969 189.578125 L 202.292969 189.777344 C 202.449219 189.667969 202.605469 189.578125 202.585938 189.777344 L 202.472656 189.777344 C 202.472656 190.699219 203.078125 189.980469 203.347656 190.136719 L 203.144531 190.496094 C 203.480469 190.113281 203.546875 190.652344 203.816406 190.496094 L 203.816406 190.652344 L 204.019531 190.453125 L 203.839844 190.808594 C 204.0625 190.945312 204.445312 190.808594 204.667969 190.808594 L 204.511719 191.125 C 205.003906 190.652344 204.984375 191.324219 205.320312 191.125 C 205.859375 191.484375 206.621094 191.125 207.269531 191.125 L 207.269531 191.304688 C 207.269531 191.304688 207.425781 190.988281 207.449219 191.035156 C 207.464844 191.09375 207.464844 191.152344 207.449219 191.214844 C 207.449219 191.796875 207.917969 190.988281 207.851562 191.4375 C 207.949219 191.296875 208.011719 191.136719 208.03125 190.96875 C 208.582031 191.042969 209.089844 190.929688 209.554688 190.628906 C 209.570312 190.773438 209.570312 190.914062 209.554688 191.058594 C 209.488281 190.609375 209.804688 191.011719 210.183594 191.191406 Z M 183.261719 191.078125 C 183.261719 191.078125 183.195312 190.96875 183.195312 190.96875 Z M 165.910156 200.046875 L 166.246094 200.046875 Z M 166.71875 200.472656 L 166.921875 200.472656 L 165.957031 200.316406 C 165.464844 200.492188 167.054688 200.316406 166.71875 200.472656 Z M 166.71875 200.472656 C 166.515625 200.628906 166.964844 200.605469 167.121094 200.605469 C 166.695312 200.742188 167.101562 200.472656 166.652344 200.582031 Z M 206.148438 204.730469 Z M 217.625 192.582031 C 217.136719 192.417969 216.636719 192.371094 216.125 192.445312 L 216.527344 192.445312 C 216.347656 192.457031 216.167969 192.457031 215.988281 192.445312 C 215.988281 192.691406 215.292969 192.625 215.003906 192.761719 C 215.496094 192.960938 215.160156 193.074219 215.003906 193.164062 L 214.777344 193.164062 C 214.308594 193.164062 215.652344 193.632812 214.777344 193.386719 C 214.835938 193.945312 214.761719 194.484375 214.554688 195.003906 C 214.824219 195.179688 214.398438 195.382812 215.003906 195.472656 C 214.308594 195.472656 213.996094 195.695312 213.972656 195.855469 C 213.949219 196.011719 213.835938 195.855469 213.972656 195.855469 C 213.03125 195.855469 214.601562 196.503906 213.480469 196.324219 C 214.195312 196.707031 213.054688 196.660156 213.816406 197.199219 C 213.652344 197.171875 213.503906 197.109375 213.367188 197.019531 C 213.144531 197.46875 212.628906 197.804688 212.378906 198.140625 C 212.785156 198.8125 211.664062 198.679688 212.269531 199.464844 C 211.976562 199.464844 211.394531 199.664062 211.484375 200.179688 C 211.320312 200.367188 211.21875 200.585938 211.175781 200.832031 C 211.128906 201.074219 211.152344 201.3125 211.238281 201.546875 C 210.476562 201.054688 210.496094 201.300781 210.160156 201.234375 C 210.160156 201.703125 209.824219 202.039062 209.78125 202.601562 C 209.445312 202.332031 209.644531 202.960938 209.21875 202.601562 C 209.21875 204.28125 207.652344 204.976562 206.125 204.84375 C 206.125 205.222656 206.394531 205.898438 206.484375 206.34375 C 206.484375 206.34375 206.484375 206.210938 206.484375 206.1875 C 206.484375 206.164062 205.835938 206.03125 205.699219 206.1875 C 205.6875 206.121094 205.6875 206.054688 205.699219 205.984375 C 205.699219 206.34375 205.074219 205.808594 205.074219 206.34375 L 205.074219 206.210938 L 205.074219 206.480469 C 205.074219 206.300781 204.847656 206.03125 204.960938 206.054688 C 203.144531 206.839844 201.597656 208.609375 199.492188 209.125 L 199.492188 208.898438 L 199.199219 209.371094 C 199.191406 209.304688 199.191406 209.238281 199.199219 209.167969 C 198.59375 208.988281 198.234375 209.683594 197.71875 209.730469 C 197.71875 209.730469 197.71875 209.4375 197.71875 209.347656 C 197.472656 209.976562 196.957031 208.8125 197.046875 209.953125 C 197.011719 209.828125 197.011719 209.699219 197.046875 209.574219 C 196.089844 210.148438 195.050781 210.421875 193.933594 210.402344 C 193.238281 211.566406 192.09375 210.804688 191.285156 211.726562 L 191.285156 211.523438 C 190.167969 212.398438 188.777344 211.792969 187.542969 212.039062 C 187.003906 212.039062 186.667969 212.285156 186.152344 212.332031 L 186.152344 212.082031 C 185.347656 213.136719 184.25 211.367188 183.394531 212.464844 L 183.394531 212.105469 C 183.285156 212.644531 182.835938 211.925781 182.925781 212.84375 L 182.746094 212.578125 C 182.117188 213.789062 181.625 212.015625 180.820312 212.757812 L 180.820312 212.53125 C 180.617188 212.6875 180.347656 212.800781 180.214844 212.53125 C 180.078125 212.261719 180.214844 212.53125 180.214844 212.398438 C 179.699219 211.476562 178.890625 212.398438 178.21875 212.105469 L 178.375 211.726562 C 177.949219 212.128906 177.523438 211.523438 177.050781 211.566406 L 177.050781 211.410156 L 176.761719 211.566406 L 176.894531 211.210938 C 176.425781 211.007812 175.84375 211.074219 175.328125 210.851562 L 175.527344 210.558594 C 174.789062 210.828125 174.652344 210 174.117188 209.886719 C 173.195312 208.988281 171.875 208.472656 170.933594 207.488281 L 171.089844 207.488281 C 170.957031 207.488281 170.730469 207.488281 170.707031 207.488281 C 170.777344 207.460938 170.84375 207.460938 170.910156 207.488281 C 171.222656 206.925781 170.148438 206.949219 170.417969 206.570312 C 170.417969 206.570312 170.105469 206.570312 169.96875 206.75 C 169.273438 205.875 168.691406 204.84375 167.863281 203.925781 C 167.972656 203.808594 168.105469 203.742188 168.265625 203.722656 C 166.898438 203.003906 166.898438 201.839844 166.898438 200.832031 C 166.652344 200.832031 166.652344 200.988281 166.382812 200.941406 C 166.160156 201.347656 167.101562 201.414062 166.742188 201.792969 L 166.472656 201.792969 C 166.472656 202.039062 167.078125 201.683594 166.832031 201.996094 C 166.585938 202.308594 166.539062 201.996094 166.515625 201.996094 C 166.742188 202.421875 166.675781 202.960938 167.367188 203.183594 C 166.898438 203.453125 167.503906 203.65625 167.101562 203.992188 C 167.324219 203.992188 167.324219 204.171875 167.660156 203.992188 C 168.171875 205.648438 169.003906 207.128906 170.148438 208.429688 C 171.382812 208.429688 171.046875 209.886719 171.988281 210.335938 C 172.394531 210.367188 172.726562 210.546875 172.972656 210.871094 L 173.464844 210.738281 C 174.632812 212.777344 177.140625 213.136719 179.183594 213.742188 C 181.601562 214.324219 183.84375 214.863281 185.90625 213.359375 C 185.90625 213.359375 185.90625 213.519531 185.90625 213.5625 C 186.535156 213.316406 187.164062 213.5625 187.746094 213.339844 C 189.15625 212.375 190.90625 213.09375 192.226562 211.992188 C 194.125 211.789062 195.953125 211.324219 197.71875 210.605469 L 197.71875 210.785156 C 199.042969 210 200.769531 210.558594 202.089844 209.683594 C 203.75 209.503906 204.535156 207.441406 206.125 207.128906 C 207.492188 207.441406 207.382812 205.023438 208.660156 205.292969 C 211.082031 205.292969 211.886719 203.183594 212.3125 201.234375 C 213.816406 200.203125 213.523438 198.09375 215.160156 197.132812 C 214.800781 196.167969 216.59375 195.945312 216.664062 194.890625 L 216.414062 194.890625 C 217.222656 194.890625 215.585938 193.949219 216.707031 194.015625 C 217.289062 194.015625 215.519531 193.367188 216.167969 193.410156 L 215.898438 193.410156 C 215.898438 193.1875 216.214844 193.410156 216.347656 193.410156 C 216.484375 193.410156 215.855469 193.410156 216.035156 193.207031 C 217.15625 193.386719 215.878906 192.714844 217.132812 192.871094 C 217.132812 193.007812 217.648438 192.871094 217.871094 193.074219 C 218.097656 193.097656 218.097656 192.738281 217.558594 192.691406 Z M 214.9375 192.894531 C 214.9375 192.894531 214.867188 192.984375 214.867188 193.007812 Z M 206.375 213.070312 L 206.710938 213.070312 Z M 207.203125 213.339844 L 207.425781 213.339844 L 206.507812 213.160156 C 205.902344 213.382812 207.492188 213.519531 207.246094 213.539062 Z M 207.203125 213.339844 C 206.976562 213.339844 207.402344 213.339844 207.5625 213.472656 C 207.066406 213.675781 207.515625 213.609375 207.046875 213.585938 Z M 187.8125 228.738281 Z M 207.179688 216.769531 C 207.386719 216.148438 207.386719 215.527344 207.179688 214.90625 C 207.320312 214.886719 207.464844 214.886719 207.605469 214.90625 C 206.820312 214.214844 207.246094 213.875 207.449219 213.40625 C 207.203125 213.40625 207.179688 213.40625 206.933594 213.40625 C 206.6875 213.40625 207.515625 213.742188 207.046875 213.808594 L 206.800781 213.808594 C 206.640625 213.808594 207.402344 213.808594 207.066406 213.964844 C 206.964844 213.980469 206.859375 213.980469 206.753906 213.964844 C 206.753906 214.191406 206.597656 214.347656 207.089844 214.660156 C 206.597656 214.660156 207.089844 214.863281 206.53125 214.820312 C 206.710938 214.820312 206.664062 214.976562 206.976562 215.066406 C 206.53125 215.691406 206.6875 216.566406 206.285156 217.304688 C 206.957031 218.113281 205.699219 217.910156 205.746094 218.449219 C 205.878906 218.695312 205.746094 218.941406 205.632812 219.011719 L 205.878906 219.390625 C 204.535156 219.726562 204.242188 220.914062 203.167969 221.386719 C 202.089844 221.855469 200.925781 222.035156 200.5 223.785156 C 200.5 223.785156 200.5 223.652344 200.5 223.605469 C 200.296875 223.964844 199.828125 223.808594 199.648438 224.167969 C 199.289062 225.285156 198.078125 224.839844 197.675781 225.960938 C 196.640625 226.261719 195.632812 226.636719 194.648438 227.082031 L 194.648438 226.878906 C 193.84375 227.460938 192.921875 226.496094 192.140625 226.878906 C 191.355469 226.429688 190.277344 227.910156 189.472656 227.125 C 189.203125 226.070312 187.902344 227.84375 187.722656 226.699219 C 187.339844 224.90625 186.222656 225.398438 184.742188 225.421875 C 184.316406 224.433594 182.5 224.59375 182.835938 223.179688 C 181.960938 223.179688 183.039062 221.902344 182.679688 221.632812 L 182.476562 221.632812 C 183.082031 221.164062 181.355469 221.632812 182.320312 221.164062 C 182.792969 220.894531 180.996094 221.453125 181.601562 221.164062 L 181.335938 221.164062 C 181.222656 221.164062 181.625 221.164062 181.691406 220.914062 C 181.761719 220.667969 181.222656 221.074219 181.355469 220.914062 C 182.410156 220.535156 181.019531 220.714844 182.230469 220.308594 C 182.230469 220.308594 182.679688 220.085938 182.96875 220.132812 C 183.261719 220.175781 182.96875 219.929688 182.453125 220.132812 C 181.945312 220.207031 181.460938 220.355469 180.996094 220.578125 L 181.402344 220.578125 L 180.929688 220.757812 C 180.929688 220.9375 180.347656 221.140625 180.167969 221.363281 C 180.660156 221.363281 180.414062 221.5 180.371094 221.589844 L 180.167969 221.589844 C 179.71875 221.8125 181.132812 221.429688 180.324219 221.589844 C 180.625 221.875 180.859375 222.210938 181.019531 222.597656 C 181.335938 222.597656 181.15625 222.886719 181.648438 222.597656 C 181.085938 223.023438 181.085938 223.382812 181.175781 223.472656 C 181.265625 223.5625 181.175781 223.472656 181.175781 223.472656 C 180.550781 224.144531 182.027344 223.222656 181.175781 224.007812 C 181.828125 223.582031 181.175781 224.480469 182.007812 224.007812 C 181.910156 224.132812 181.800781 224.238281 181.671875 224.324219 C 181.871094 224.636719 181.9375 225.128906 182.140625 225.398438 C 182.8125 225.128906 182.410156 226.09375 183.21875 225.578125 C 183.21875 225.847656 183.21875 226.363281 183.664062 226.226562 C 183.828125 226.363281 184.015625 226.433594 184.226562 226.433594 C 184.4375 226.433594 184.625 226.363281 184.785156 226.226562 C 184.339844 227.011719 184.539062 226.945312 184.496094 227.257812 C 184.898438 227.011719 185.191406 227.257812 185.617188 227.257812 C 185.457031 227.640625 185.929688 227.257812 185.617188 227.753906 C 186.914062 227.148438 187.542969 227.753906 188.195312 228.941406 C 188.46875 228.523438 188.714844 228.089844 188.933594 227.640625 C 188.933594 227.640625 188.933594 227.796875 188.933594 227.796875 C 188.933594 227.796875 189.113281 228.335938 189.292969 228.269531 C 189.300781 228.328125 189.300781 228.386719 189.292969 228.449219 C 189.492188 228.199219 189.492188 228.984375 189.761719 228.449219 L 189.761719 228.605469 L 189.917969 228.402344 C 189.917969 228.605469 189.917969 228.894531 189.785156 228.828125 C 191.199219 229.277344 192.632812 228.246094 193.933594 228.269531 L 193.933594 228.449219 L 194.15625 228.089844 L 194.15625 228.289062 C 194.539062 228.582031 194.804688 227.976562 195.121094 228 C 195.433594 228.023438 195.121094 228.289062 195.121094 228.378906 C 195.253906 227.796875 195.65625 229.007812 195.523438 227.886719 C 195.539062 228.015625 195.539062 228.140625 195.523438 228.269531 C 196.070312 227.796875 196.707031 227.558594 197.429688 227.550781 C 197.609375 226.40625 198.503906 227.058594 198.707031 226.09375 L 198.707031 226.273438 C 199.066406 225.332031 200.074219 225.691406 200.65625 225.195312 C 200.972656 225.195312 201.015625 224.792969 201.285156 224.636719 L 201.417969 224.839844 C 201.417969 223.761719 202.832031 224.972656 202.675781 223.761719 L 202.832031 224.078125 C 202.585938 223.582031 203.210938 224.078125 202.652344 223.3125 L 202.898438 223.472656 C 202.429688 222.28125 203.773438 223.472656 203.617188 222.621094 L 203.726562 222.796875 C 203.726562 222.597656 203.726562 222.394531 203.929688 222.507812 C 203.945312 222.550781 203.945312 222.597656 203.929688 222.640625 C 204.804688 223.046875 204.46875 222.035156 204.78125 221.789062 L 205.027344 222.125 C 204.828125 221.65625 205.386719 221.722656 205.410156 221.386719 L 205.542969 221.519531 L 205.003906 221.386719 L 205.296875 221.632812 C 205.519531 221.410156 205.5 220.960938 205.679688 220.691406 L 205.925781 220.914062 C 205.632812 220.289062 206.351562 220.445312 206.328125 219.996094 C 206.957031 219.4375 206.84375 218.472656 206.976562 217.753906 L 207.113281 217.867188 C 207.113281 217.867188 206.84375 217.621094 206.890625 217.597656 C 206.949219 217.625 207 217.660156 207.046875 217.710938 C 207.652344 217.710938 206.933594 217.128906 207.382812 217.238281 C 207.28125 217.136719 207.160156 217.0625 207.023438 217.015625 Z M 179.675781 221.386719 C 179.675781 221.386719 179.699219 221.363281 179.675781 221.386719 Z M 590.96875 834.773438 C 591.378906 835.042969 591.761719 835.34375 592.121094 835.675781 C 592.476562 836.011719 592.804688 836.375 593.097656 836.765625 C 593.390625 837.160156 593.652344 837.574219 593.875 838.007812 C 594.09375 838.445312 594.277344 838.898438 594.421875 839.367188 C 594.566406 839.835938 594.667969 840.3125 594.730469 840.796875 C 594.789062 841.285156 594.808594 841.773438 594.785156 842.261719 C 594.761719 842.75 594.695312 843.234375 594.585938 843.710938 C 594.476562 844.1875 594.328125 844.652344 594.140625 845.105469 C 593.949219 845.558594 593.722656 845.988281 593.460938 846.402344 C 593.195312 846.816406 592.898438 847.203125 592.566406 847.5625 C 592.234375 847.921875 591.875 848.253906 591.488281 848.550781 C 591.097656 848.847656 590.6875 849.113281 590.253906 849.339844 C 589.820312 849.566406 589.367188 849.753906 588.902344 849.902344 C 588.433594 850.046875 587.957031 850.15625 587.472656 850.222656 C 586.988281 850.285156 586.5 850.308594 586.011719 850.289062 C 585.519531 850.269531 585.035156 850.210938 584.558594 850.105469 C 585.125 850.839844 585.5625 851.644531 585.863281 852.519531 C 586.167969 853.394531 586.324219 854.292969 586.335938 855.222656 C 586.34375 856.148438 586.207031 857.050781 585.917969 857.933594 C 585.632812 858.8125 585.214844 859.625 584.660156 860.371094 C 584.109375 861.113281 583.453125 861.75 582.691406 862.28125 C 581.929688 862.808594 581.105469 863.203125 580.214844 863.460938 C 579.328125 863.722656 578.417969 863.832031 577.492188 863.796875 C 576.566406 863.757812 575.671875 863.574219 574.808594 863.242188 C 580.566406 865.6875 578.503906 875.324219 572.835938 877.96875 C 567.164062 880.613281 560.550781 878.753906 554.476562 877.296875 C 530.019531 871.425781 504.488281 872.8125 479.46875 870.4375 C 472.746094 869.808594 465.394531 868.398438 461.203125 863.085938 C 460.515625 862.371094 459.945312 861.574219 459.492188 860.691406 C 459.039062 859.8125 458.722656 858.886719 458.539062 857.910156 C 458.355469 856.9375 458.316406 855.957031 458.417969 854.972656 C 458.519531 853.988281 458.761719 853.039062 459.140625 852.125 C 429.503906 858.847656 398.996094 863.445312 368.734375 868.980469 C 368.511719 860.46875 367.761719 852.003906 366.492188 843.582031 C 359.769531 792.203125 376.085938 749.992188 378.933594 739.703125 C 379.761719 736.753906 380.414062 733.765625 380.882812 730.738281 C 400.902344 728.808594 426.34375 725.269531 441.585938 720.402344 C 451.339844 717.308594 460.328125 714.664062 469.113281 712.402344 C 456.714844 714.539062 444.238281 715.980469 431.679688 716.726562 C 375.679688 720.269531 319.789062 719.007812 264.003906 712.9375 C 261.933594 712.875 260 712.328125 258.199219 711.300781 C 256.464844 709.71875 255.199219 707.820312 254.410156 705.609375 C 222.714844 643.851562 186.601562 507.914062 186.601562 507.914062 C 193.507812 498.050781 193.550781 491.328125 213.144531 484.667969 C 216.910156 483.390625 227.535156 482.875 236.589844 484.511719 C 240.074219 485.167969 243.363281 486.355469 246.457031 488.082031 C 249.554688 489.808594 252.292969 491.980469 254.679688 494.601562 C 263.894531 530.46875 272.835938 582.316406 287.160156 643.761719 C 290.144531 656.5625 292.789062 663.152344 297.875 667.386719 C 302.964844 671.625 330.042969 669.429688 350.824219 670.90625 C 399.78125 674.449219 423.832031 680.769531 468.148438 678.417969 C 475.1875 678.035156 496.484375 676.871094 497.292969 668.417969 C 498.390625 655.417969 494.757812 642.707031 500.207031 630.847656 C 505.652344 618.992188 517.960938 610.046875 531.003906 610.449219 C 531.78125 610.515625 532.519531 610.722656 533.214844 611.070312 C 533.914062 611.421875 534.523438 611.886719 535.039062 612.46875 C 538.402344 615.785156 533.917969 620.222656 529.796875 622.488281 C 522.441406 626.5 515.136719 632.105469 513.050781 640.21875 C 510.964844 648.332031 512.648438 654.519531 520.941406 653.511719 C 526.988281 651.953125 532.585938 649.40625 537.730469 645.867188 C 557.90625 628.113281 532.6875 619.148438 536.566406 611.121094 C 541.832031 605.023438 551.5625 611.527344 555.460938 619.796875 C 560.191406 629.773438 560.730469 640.867188 551.316406 653.894531 C 565.75 651.652344 568.125 622.128906 580.457031 614.261719 C 587.605469 613.519531 583.886719 632.640625 581.914062 639.589844 C 578.796875 650.574219 575.75 659.183594 571.039062 665.28125 C 560.683594 678.730469 543.804688 689.691406 527.621094 695.902344 C 516.460938 700.242188 505.105469 703.976562 493.546875 707.109375 C 503.792969 705.226562 514.394531 703.746094 526.1875 702.628906 C 551.71875 700.070312 570.097656 711.324219 576.957031 719.597656 C 590.765625 736.253906 595.046875 755.304688 589.804688 781.019531 C 588.996094 785.007812 581.980469 799.847656 569.808594 808.140625 C 567.320312 809.847656 564.785156 811.480469 562.230469 813.074219 C 565.144531 812.601562 568.058594 812.175781 570.972656 811.75 C 577.070312 810.878906 583.324219 810.003906 589.289062 811.503906 C 595.25 813.007812 600.898438 817.488281 601.820312 823.566406 C 602.738281 829.640625 596.953125 836.183594 590.96875 834.773438 Z M 216.527344 387.316406 C 226.390625 388.007812 241.1875 390.992188 263.085938 399.351562 C 286.019531 408.140625 304.421875 403.566406 314.84375 399.015625 C 314.921875 397.410156 314.808594 395.820312 314.507812 394.242188 C 312.570312 390.503906 311.011719 386.613281 309.835938 382.570312 C 308.65625 378.523438 307.886719 374.40625 307.519531 370.210938 C 307.152344 366.011719 307.195312 361.824219 307.652344 357.636719 C 308.109375 353.449219 308.964844 349.347656 310.226562 345.328125 C 311.910156 339.589844 315.269531 336.136719 319.039062 336.652344 C 327.453125 338.078125 335.769531 339.945312 343.988281 342.257812 C 373.375 350.933594 378.058594 342.996094 380.367188 339.007812 C 388.503906 325.042969 392.316406 308.453125 394.46875 288.613281 C 395.214844 286.707031 396.230469 284.957031 397.507812 283.355469 C 398.789062 281.757812 400.28125 280.386719 401.976562 279.242188 C 405.5625 277.003906 410.945312 274.402344 409.488281 270.410156 C 408.945312 269.3125 408.195312 268.378906 407.246094 267.609375 C 404.292969 264.386719 401.90625 260.792969 400.078125 256.824219 C 398.253906 252.855469 397.078125 248.699219 396.554688 244.363281 C 396.957031 218.046875 395.523438 189.441406 378.84375 170.074219 C 375.941406 177.824219 372.355469 185.246094 368.085938 192.335938 C 358.167969 206.738281 347.035156 220.128906 334.683594 232.503906 C 333.53125 230.257812 332 228.304688 330.089844 226.65625 C 325.917969 223.136719 319.171875 222.105469 314.84375 225.691406 C 313.636719 226.90625 312.648438 228.277344 311.878906 229.8125 C 311.113281 231.34375 310.609375 232.960938 310.363281 234.65625 C 309.503906 238.605469 309.152344 242.601562 309.308594 246.640625 C 309.464844 250.679688 310.121094 254.636719 311.28125 258.507812 C 307.195312 263.429688 302.632812 267.863281 297.597656 271.804688 C 292.558594 275.746094 287.160156 279.105469 281.402344 281.890625 C 271.113281 287.203125 249.839844 294.847656 239.527344 294.578125 C 241.742188 308.527344 241.789062 322.484375 239.660156 336.449219 C 235.960938 358.328125 223.433594 372.609375 216.527344 387.316406 Z M 216.527344 387.316406 " fill-opacity="1" fill-rule="nonzero"/></svg>